<?xml version="1.0" encoding="utf-8"?>
<!-- Generator: Adobe Illustrator 25.4.1, SVG Export Plug-In . SVG Version: 6.00 Build 0)  -->
<svg version="1.1" id="Layer_1" xmlns="http://www.w3.org/2000/svg" xmlns:xlink="http://www.w3.org/1999/xlink" x="0px" y="0px"
	 viewBox="0 0 15.85 16" style="enable-background:new 0 0 15.85 16;" xml:space="preserve">
<style type="text/css">
	.st0{fill:#FFFFFF;}
</style>
<g>
	<g>
		<g>
			<g>
				<path class="st0" d="M12.4,2.36h-1.38V1.74c0-0.2-0.22-0.29-0.42-0.29H9.53C9.27,0.72,8.63,0.36,7.91,0.36
					C7.19,0.33,6.53,0.77,6.29,1.45H5.23c-0.2,0-0.4,0.09-0.4,0.29v0.62H3.45C2.63,2.37,1.96,3.01,1.92,3.83v10.43
					c0,0.8,0.73,1.38,1.53,1.38h8.95c0.8,0,1.53-0.58,1.53-1.38V3.83C13.89,3.01,13.22,2.37,12.4,2.36z M5.56,2.18h1
					C6.73,2.15,6.87,2.02,6.9,1.85c0.11-0.47,0.52-0.81,1-0.82c0.48,0.01,0.88,0.35,0.98,0.82c0.03,0.18,0.18,0.31,0.36,0.33h1.04
					v1.46H5.56V2.18z M13.2,14.26c0,0.4-0.4,0.66-0.8,0.66H3.45c-0.4,0-0.8-0.25-0.8-0.66V3.83c0.04-0.42,0.38-0.74,0.8-0.75h1.38
					v0.93c0.02,0.2,0.2,0.36,0.4,0.35h5.37c0.21,0.01,0.39-0.14,0.42-0.35V3.09h1.38c0.42,0.01,0.76,0.33,0.8,0.75L13.2,14.26
					L13.2,14.26z"/>
				<path class="st0" d="M6.52,8.49C6.39,8.35,6.16,8.34,6.01,8.47L4.85,9.58L4.36,9.07C4.22,8.93,3.99,8.92,3.85,9.06
					c-0.14,0.15-0.14,0.38,0,0.53l0.75,0.76c0.06,0.07,0.16,0.11,0.25,0.11c0.1,0,0.19-0.04,0.25-0.11L6.52,9
					c0.14-0.13,0.15-0.35,0.02-0.49C6.54,8.51,6.53,8.5,6.52,8.49z"/>
				<path class="st0" d="M11.75,9.27H7.56c-0.2,0-0.36,0.16-0.36,0.36C7.2,9.84,7.36,10,7.56,10h4.19c0.2,0,0.36-0.16,0.36-0.36
					C12.11,9.44,11.95,9.27,11.75,9.27z"/>
				<path class="st0" d="M6.52,5.58C6.39,5.44,6.16,5.43,6.01,5.56L4.85,6.67L4.36,6.16C4.22,6.02,3.99,6.01,3.85,6.14
					c-0.14,0.15-0.14,0.38,0,0.53l0.75,0.76c0.06,0.07,0.16,0.11,0.25,0.11c0.1,0,0.19-0.04,0.25-0.11l1.42-1.35
					C6.66,5.96,6.67,5.74,6.54,5.6C6.54,5.59,6.53,5.59,6.52,5.58z"/>
				<path class="st0" d="M11.75,6.36H7.56c-0.2,0-0.36,0.16-0.36,0.36s0.16,0.36,0.36,0.36h4.19c0.2,0,0.36-0.16,0.36-0.36
					S11.95,6.36,11.75,6.36z"/>
				<path class="st0" d="M6.52,11.4c-0.14-0.14-0.36-0.15-0.51-0.02L4.85,12.5l-0.49-0.51c-0.14-0.14-0.36-0.15-0.51-0.02
					c-0.14,0.15-0.14,0.38,0,0.53l0.75,0.76c0.06,0.07,0.16,0.11,0.25,0.11c0.1,0,0.19-0.04,0.25-0.11l1.42-1.35
					c0.14-0.13,0.15-0.35,0.02-0.49C6.54,11.42,6.53,11.41,6.52,11.4z"/>
				<path class="st0" d="M11.75,12.19H7.56c-0.2,0-0.36,0.16-0.36,0.36c0,0.2,0.16,0.36,0.36,0.36h4.19c0.2,0,0.36-0.16,0.36-0.36
					C12.11,12.35,11.95,12.19,11.75,12.19z"/>
			</g>
		</g>
	</g>
</g>
</svg>
