<svg width="902" height="422" viewBox="0 0 902 422" fill="none" xmlns="http://www.w3.org/2000/svg">
<g filter="url(#filter0_d_204_9529)">
<rect x="10" y="8" width="882" height="402" rx="6" fill="white"/>
</g>
<rect x="82.5" y="136.5" width="772" height="166" stroke="#ECECEC"/>
<path d="M82 191H855" stroke="#ECECEC"/>
<path d="M82 164H855" stroke="#ECECEC"/>
<path d="M82 218H855" stroke="#ECECEC"/>
<path d="M82 245H855" stroke="#ECECEC"/>
<path d="M82 272H855" stroke="#ECECEC"/>
<path d="M212 136L212 303" stroke="#ECECEC"/>
<path d="M340 136L340 303" stroke="#ECECEC"/>
<path d="M467 136L467 303" stroke="#ECECEC"/>
<path d="M595 136L595 303" stroke="#ECECEC"/>
<path d="M723 136L723 303" stroke="#ECECEC"/>
<path d="M63.25 303.119C62.608 303.119 62.0611 302.945 61.6094 302.595C61.1577 302.243 60.8125 301.733 60.5739 301.065C60.3352 300.395 60.2159 299.585 60.2159 298.636C60.2159 297.693 60.3352 296.888 60.5739 296.22C60.8153 295.55 61.1619 295.038 61.6136 294.686C62.0682 294.331 62.6136 294.153 63.25 294.153C63.8864 294.153 64.4304 294.331 64.8821 294.686C65.3366 295.038 65.6832 295.55 65.9219 296.22C66.1634 296.888 66.2841 297.693 66.2841 298.636C66.2841 299.585 66.1648 300.395 65.9261 301.065C65.6875 301.733 65.3423 302.243 64.8906 302.595C64.4389 302.945 63.892 303.119 63.25 303.119ZM63.25 302.182C63.8864 302.182 64.3807 301.875 64.733 301.261C65.0852 300.648 65.2614 299.773 65.2614 298.636C65.2614 297.881 65.1804 297.237 65.0185 296.706C64.8594 296.175 64.6293 295.77 64.3281 295.491C64.0298 295.213 63.6705 295.074 63.25 295.074C62.6193 295.074 62.1264 295.385 61.7713 296.007C61.4162 296.626 61.2386 297.503 61.2386 298.636C61.2386 299.392 61.3182 300.034 61.4773 300.562C61.6364 301.091 61.8651 301.493 62.1634 301.768C62.4645 302.044 62.8267 302.182 63.25 302.182Z" fill="#4F4F4F"/>
<path d="M57.8935 263.273V272H56.8366V264.381H56.7855L54.6548 265.795V264.722L56.8366 263.273H57.8935ZM63.25 272.119C62.608 272.119 62.0611 271.945 61.6094 271.595C61.1577 271.243 60.8125 270.733 60.5739 270.065C60.3352 269.395 60.2159 268.585 60.2159 267.636C60.2159 266.693 60.3352 265.888 60.5739 265.22C60.8153 264.55 61.1619 264.038 61.6136 263.686C62.0682 263.331 62.6136 263.153 63.25 263.153C63.8864 263.153 64.4304 263.331 64.8821 263.686C65.3366 264.038 65.6832 264.55 65.9219 265.22C66.1634 265.888 66.2841 266.693 66.2841 267.636C66.2841 268.585 66.1648 269.395 65.9261 270.065C65.6875 270.733 65.3423 271.243 64.8906 271.595C64.4389 271.945 63.892 272.119 63.25 272.119ZM63.25 271.182C63.8864 271.182 64.3807 270.875 64.733 270.261C65.0852 269.648 65.2614 268.773 65.2614 267.636C65.2614 266.881 65.1804 266.237 65.0185 265.706C64.8594 265.175 64.6293 264.77 64.3281 264.491C64.0298 264.213 63.6705 264.074 63.25 264.074C62.6193 264.074 62.1264 264.385 61.7713 265.007C61.4162 265.626 61.2386 266.503 61.2386 267.636C61.2386 268.392 61.3182 269.034 61.4773 269.562C61.6364 270.091 61.8651 270.493 62.1634 270.768C62.4645 271.044 62.8267 271.182 63.25 271.182Z" fill="#4F4F4F"/>
<path d="M53.1378 245V244.233L56.0185 241.08C56.3565 240.71 56.6349 240.389 56.8537 240.116C57.0724 239.841 57.2344 239.582 57.3395 239.341C57.4474 239.097 57.5014 238.841 57.5014 238.574C57.5014 238.267 57.4276 238.001 57.2798 237.777C57.1349 237.553 56.9361 237.379 56.6832 237.257C56.4304 237.135 56.1463 237.074 55.831 237.074C55.4957 237.074 55.2031 237.143 54.9531 237.283C54.706 237.419 54.5142 237.611 54.3778 237.858C54.2443 238.105 54.1776 238.395 54.1776 238.727H53.1719C53.1719 238.216 53.2898 237.767 53.5256 237.381C53.7614 236.994 54.0824 236.693 54.4886 236.477C54.8977 236.261 55.3565 236.153 55.8651 236.153C56.3764 236.153 56.8295 236.261 57.2244 236.477C57.6193 236.693 57.929 236.984 58.1534 237.351C58.3778 237.717 58.4901 238.125 58.4901 238.574C58.4901 238.895 58.4318 239.209 58.3153 239.516C58.2017 239.82 58.0028 240.159 57.7188 240.534C57.4375 240.906 57.0469 241.361 56.5469 241.898L54.5866 243.994V244.062H58.6435V245H53.1378ZM63.25 245.119C62.608 245.119 62.0611 244.945 61.6094 244.595C61.1577 244.243 60.8125 243.733 60.5739 243.065C60.3352 242.395 60.2159 241.585 60.2159 240.636C60.2159 239.693 60.3352 238.888 60.5739 238.22C60.8153 237.55 61.1619 237.038 61.6136 236.686C62.0682 236.331 62.6136 236.153 63.25 236.153C63.8864 236.153 64.4304 236.331 64.8821 236.686C65.3366 237.038 65.6832 237.55 65.9219 238.22C66.1634 238.888 66.2841 239.693 66.2841 240.636C66.2841 241.585 66.1648 242.395 65.9261 243.065C65.6875 243.733 65.3423 244.243 64.8906 244.595C64.4389 244.945 63.892 245.119 63.25 245.119ZM63.25 244.182C63.8864 244.182 64.3807 243.875 64.733 243.261C65.0852 242.648 65.2614 241.773 65.2614 240.636C65.2614 239.881 65.1804 239.237 65.0185 238.706C64.8594 238.175 64.6293 237.77 64.3281 237.491C64.0298 237.213 63.6705 237.074 63.25 237.074C62.6193 237.074 62.1264 237.385 61.7713 238.007C61.4162 238.626 61.2386 239.503 61.2386 240.636C61.2386 241.392 61.3182 242.034 61.4773 242.562C61.6364 243.091 61.8651 243.493 62.1634 243.768C62.4645 244.044 62.8267 244.182 63.25 244.182Z" fill="#4F4F4F"/>
<path d="M55.7116 219.119C55.1491 219.119 54.6477 219.023 54.2074 218.83C53.7699 218.636 53.4219 218.368 53.1634 218.024C52.9077 217.678 52.7685 217.276 52.7457 216.818H53.8196C53.8423 217.099 53.9389 217.342 54.1094 217.547C54.2798 217.749 54.5028 217.905 54.7784 218.016C55.054 218.126 55.3594 218.182 55.6946 218.182C56.0696 218.182 56.402 218.116 56.6918 217.986C56.9815 217.855 57.2088 217.673 57.3736 217.44C57.5384 217.207 57.6207 216.938 57.6207 216.631C57.6207 216.31 57.5412 216.027 57.3821 215.783C57.223 215.536 56.9901 215.342 56.6832 215.203C56.3764 215.064 56.0014 214.994 55.5582 214.994H54.8594V214.057H55.5582C55.9048 214.057 56.2088 213.994 56.4702 213.869C56.7344 213.744 56.9403 213.568 57.0881 213.341C57.2386 213.114 57.3139 212.847 57.3139 212.54C57.3139 212.244 57.2486 211.987 57.1179 211.768C56.9872 211.55 56.8026 211.379 56.5639 211.257C56.3281 211.135 56.0497 211.074 55.7287 211.074C55.4276 211.074 55.1435 211.129 54.8764 211.24C54.6122 211.348 54.3963 211.506 54.2287 211.713C54.0611 211.918 53.9702 212.165 53.956 212.455H52.9332C52.9503 211.997 53.0881 211.597 53.3466 211.253C53.6051 210.906 53.9432 210.636 54.3608 210.443C54.7813 210.25 55.2429 210.153 55.7457 210.153C56.2855 210.153 56.7486 210.263 57.1349 210.482C57.5213 210.697 57.8182 210.983 58.0256 211.338C58.233 211.693 58.3366 212.077 58.3366 212.489C58.3366 212.98 58.2074 213.399 57.9489 213.746C57.6932 214.092 57.3452 214.332 56.9048 214.466V214.534C57.456 214.625 57.8864 214.859 58.196 215.237C58.5057 215.612 58.6605 216.077 58.6605 216.631C58.6605 217.105 58.5313 217.531 58.2727 217.909C58.017 218.284 57.6676 218.58 57.2244 218.795C56.7813 219.011 56.277 219.119 55.7116 219.119ZM63.25 219.119C62.608 219.119 62.0611 218.945 61.6094 218.595C61.1577 218.243 60.8125 217.733 60.5739 217.065C60.3352 216.395 60.2159 215.585 60.2159 214.636C60.2159 213.693 60.3352 212.888 60.5739 212.22C60.8153 211.55 61.1619 211.038 61.6136 210.686C62.0682 210.331 62.6136 210.153 63.25 210.153C63.8864 210.153 64.4304 210.331 64.8821 210.686C65.3366 211.038 65.6832 211.55 65.9219 212.22C66.1634 212.888 66.2841 213.693 66.2841 214.636C66.2841 215.585 66.1648 216.395 65.9261 217.065C65.6875 217.733 65.3423 218.243 64.8906 218.595C64.4389 218.945 63.892 219.119 63.25 219.119ZM63.25 218.182C63.8864 218.182 64.3807 217.875 64.733 217.261C65.0852 216.648 65.2614 215.773 65.2614 214.636C65.2614 213.881 65.1804 213.237 65.0185 212.706C64.8594 212.175 64.6293 211.77 64.3281 211.491C64.0298 211.213 63.6705 211.074 63.25 211.074C62.6193 211.074 62.1264 211.385 61.7713 212.007C61.4162 212.626 61.2386 213.503 61.2386 214.636C61.2386 215.392 61.3182 216.034 61.4773 216.562C61.6364 217.091 61.8651 217.493 62.1634 217.768C62.4645 218.044 62.8267 218.182 63.25 218.182Z" fill="#4F4F4F"/>
<path d="M52.4996 189.21V188.341L56.3349 182.273H56.9656V183.619H56.5394L53.6417 188.205V188.273H58.8065V189.21H52.4996ZM56.6076 191V188.946V188.541V182.273H57.6133V191H56.6076ZM63.25 191.119C62.608 191.119 62.0611 190.945 61.6094 190.595C61.1577 190.243 60.8125 189.733 60.5739 189.065C60.3352 188.395 60.2159 187.585 60.2159 186.636C60.2159 185.693 60.3352 184.888 60.5739 184.22C60.8153 183.55 61.1619 183.038 61.6136 182.686C62.0682 182.331 62.6136 182.153 63.25 182.153C63.8864 182.153 64.4304 182.331 64.8821 182.686C65.3366 183.038 65.6832 183.55 65.9219 184.22C66.1634 184.888 66.2841 185.693 66.2841 186.636C66.2841 187.585 66.1648 188.395 65.9261 189.065C65.6875 189.733 65.3423 190.243 64.8906 190.595C64.4389 190.945 63.892 191.119 63.25 191.119ZM63.25 190.182C63.8864 190.182 64.3807 189.875 64.733 189.261C65.0852 188.648 65.2614 187.773 65.2614 186.636C65.2614 185.881 65.1804 185.237 65.0185 184.706C64.8594 184.175 64.6293 183.77 64.3281 183.491C64.0298 183.213 63.6705 183.074 63.25 183.074C62.6193 183.074 62.1264 183.385 61.7713 184.007C61.4162 184.626 61.2386 185.503 61.2386 186.636C61.2386 187.392 61.3182 188.034 61.4773 188.562C61.6364 189.091 61.8651 189.493 62.1634 189.768C62.4645 190.044 62.8267 190.182 63.25 190.182Z" fill="#4F4F4F"/>
<path d="M55.8299 164.119C55.3299 164.119 54.8796 164.02 54.479 163.821C54.0785 163.622 53.7575 163.349 53.516 163.003C53.2745 162.656 53.1424 162.261 53.1197 161.818H54.1424C54.1822 162.213 54.3612 162.54 54.6793 162.798C55.0004 163.054 55.3839 163.182 55.8299 163.182C56.1879 163.182 56.506 163.098 56.7844 162.93C57.0657 162.763 57.2859 162.533 57.445 162.24C57.6069 161.945 57.6879 161.611 57.6879 161.239C57.6879 160.858 57.604 160.518 57.4364 160.22C57.2717 159.919 57.0444 159.682 56.7546 159.509C56.4648 159.335 56.1339 159.247 55.7617 159.244C55.4947 159.241 55.2205 159.283 54.9393 159.368C54.658 159.45 54.4265 159.557 54.2447 159.688L53.256 159.568L53.7844 155.273H58.3185V156.21H54.6708L54.364 158.784H54.4151C54.5941 158.642 54.8185 158.524 55.0884 158.43C55.3583 158.337 55.6396 158.29 55.9322 158.29C56.4663 158.29 56.9421 158.418 57.3597 158.673C57.7802 158.926 58.1097 159.273 58.3484 159.713C58.5898 160.153 58.7106 160.656 58.7106 161.222C58.7106 161.778 58.5856 162.276 58.3356 162.713C58.0884 163.148 57.7475 163.491 57.3129 163.744C56.8782 163.994 56.3839 164.119 55.8299 164.119ZM63.25 164.119C62.608 164.119 62.0611 163.945 61.6094 163.595C61.1577 163.243 60.8125 162.733 60.5739 162.065C60.3352 161.395 60.2159 160.585 60.2159 159.636C60.2159 158.693 60.3352 157.888 60.5739 157.22C60.8153 156.55 61.1619 156.038 61.6136 155.686C62.0682 155.331 62.6136 155.153 63.25 155.153C63.8864 155.153 64.4304 155.331 64.8821 155.686C65.3366 156.038 65.6832 156.55 65.9219 157.22C66.1634 157.888 66.2841 158.693 66.2841 159.636C66.2841 160.585 66.1648 161.395 65.9261 162.065C65.6875 162.733 65.3423 163.243 64.8906 163.595C64.4389 163.945 63.892 164.119 63.25 164.119ZM63.25 163.182C63.8864 163.182 64.3807 162.875 64.733 162.261C65.0852 161.648 65.2614 160.773 65.2614 159.636C65.2614 158.881 65.1804 158.237 65.0185 157.706C64.8594 157.175 64.6293 156.77 64.3281 156.491C64.0298 156.213 63.6705 156.074 63.25 156.074C62.6193 156.074 62.1264 156.385 61.7713 157.007C61.4162 157.626 61.2386 158.503 61.2386 159.636C61.2386 160.392 61.3182 161.034 61.4773 161.562C61.6364 162.091 61.8651 162.493 62.1634 162.768C62.4645 163.044 62.8267 163.182 63.25 163.182Z" fill="#4F4F4F"/>
<path d="M10 107H892" stroke="#ECECEC" stroke-width="2"/>
<path d="M613.42 71.6364C613.42 72.5568 613.254 73.3523 612.922 74.0227C612.589 74.6932 612.134 75.2102 611.554 75.5739C610.974 75.9375 610.313 76.1193 609.568 76.1193C608.824 76.1193 608.162 75.9375 607.582 75.5739C607.003 75.2102 606.547 74.6932 606.214 74.0227C605.882 73.3523 605.716 72.5568 605.716 71.6364C605.716 70.7159 605.882 69.9205 606.214 69.25C606.547 68.5795 607.003 68.0625 607.582 67.6989C608.162 67.3352 608.824 67.1534 609.568 67.1534C610.313 67.1534 610.974 67.3352 611.554 67.6989C612.134 68.0625 612.589 68.5795 612.922 69.25C613.254 69.9205 613.42 70.7159 613.42 71.6364ZM612.398 71.6364C612.398 70.8807 612.271 70.2429 612.018 69.723C611.768 69.2031 611.429 68.8097 611 68.5426C610.574 68.2756 610.097 68.142 609.568 68.142C609.04 68.142 608.561 68.2756 608.132 68.5426C607.706 68.8097 607.366 69.2031 607.114 69.723C606.864 70.2429 606.739 70.8807 606.739 71.6364C606.739 72.392 606.864 73.0298 607.114 73.5497C607.366 74.0696 607.706 74.4631 608.132 74.7301C608.561 74.9972 609.04 75.1307 609.568 75.1307C610.097 75.1307 610.574 74.9972 611 74.7301C611.429 74.4631 611.768 74.0696 612.018 73.5497C612.271 73.0298 612.398 72.392 612.398 71.6364ZM615.197 76V67.2727H618.146C618.831 67.2727 619.391 67.3963 619.825 67.6435C620.263 67.8878 620.587 68.2188 620.797 68.6364C621.007 69.054 621.112 69.5199 621.112 70.0341C621.112 70.5483 621.007 71.0156 620.797 71.4361C620.589 71.8565 620.268 72.1918 619.834 72.4418C619.399 72.6889 618.842 72.8125 618.163 72.8125H616.05V71.875H618.129C618.598 71.875 618.974 71.794 619.259 71.6321C619.543 71.4702 619.749 71.2514 619.876 70.9759C620.007 70.6974 620.072 70.3835 620.072 70.0341C620.072 69.6847 620.007 69.3722 619.876 69.0966C619.749 68.821 619.541 68.6051 619.254 68.4489C618.967 68.2898 618.587 68.2102 618.112 68.2102H616.254V76H615.197ZM628.781 70C628.687 69.7131 628.563 69.456 628.41 69.2287C628.259 68.9986 628.079 68.8026 627.869 68.6406C627.661 68.4787 627.425 68.3551 627.161 68.2699C626.897 68.1847 626.607 68.142 626.292 68.142C625.775 68.142 625.305 68.2756 624.881 68.5426C624.458 68.8097 624.121 69.2031 623.871 69.723C623.621 70.2429 623.496 70.8807 623.496 71.6364C623.496 72.392 623.623 73.0298 623.876 73.5497C624.129 74.0696 624.471 74.4631 624.903 74.7301C625.335 74.9972 625.82 75.1307 626.36 75.1307C626.86 75.1307 627.3 75.0241 627.681 74.8111C628.065 74.5952 628.363 74.2912 628.576 73.8991C628.792 73.5043 628.9 73.0398 628.9 72.5057L629.224 72.5739H626.599V71.6364H629.923V72.5739C629.923 73.2926 629.769 73.9176 629.462 74.4489C629.158 74.9801 628.738 75.392 628.201 75.6847C627.667 75.9744 627.053 76.1193 626.36 76.1193C625.587 76.1193 624.908 75.9375 624.323 75.5739C623.741 75.2102 623.286 74.6932 622.96 74.0227C622.636 73.3523 622.474 72.5568 622.474 71.6364C622.474 70.946 622.566 70.3253 622.751 69.7741C622.938 69.2202 623.202 68.7486 623.543 68.3594C623.884 67.9702 624.288 67.6719 624.754 67.4645C625.219 67.2571 625.732 67.1534 626.292 67.1534C626.752 67.1534 627.181 67.223 627.579 67.3622C627.979 67.4986 628.336 67.6932 628.648 67.946C628.964 68.196 629.227 68.4957 629.437 68.8452C629.647 69.1918 629.792 69.5767 629.871 70H628.781Z" fill="#4F4F4F"/>
<rect x="575" y="68" width="21" height="8" rx="4" fill="#165BAA"/>
<path d="M713.057 76V67.2727H716.006C716.688 67.2727 717.247 67.3892 717.685 67.6222C718.122 67.8523 718.446 68.169 718.656 68.5724C718.866 68.9759 718.972 69.4347 718.972 69.9489C718.972 70.4631 718.866 70.919 718.656 71.3168C718.446 71.7145 718.124 72.027 717.689 72.2543C717.254 72.4787 716.699 72.5909 716.023 72.5909H713.636V71.6364H715.989C716.455 71.6364 716.83 71.5682 717.114 71.4318C717.401 71.2955 717.608 71.1023 717.736 70.8523C717.866 70.5994 717.932 70.2983 717.932 69.9489C717.932 69.5994 717.866 69.294 717.736 69.0327C717.605 68.7713 717.396 68.5696 717.109 68.4276C716.822 68.2827 716.443 68.2102 715.972 68.2102H714.114V76H713.057ZM717.165 72.0795L719.312 76H718.085L715.972 72.0795H717.165ZM720.891 67.2727L723.482 74.6193H723.585L726.175 67.2727H727.283L724.079 76H722.988L719.783 67.2727H720.891ZM734.199 70C734.105 69.7131 733.981 69.456 733.828 69.2287C733.677 68.9986 733.497 68.8026 733.287 68.6406C733.079 68.4787 732.843 68.3551 732.579 68.2699C732.315 68.1847 732.025 68.142 731.71 68.142C731.193 68.142 730.723 68.2756 730.299 68.5426C729.876 68.8097 729.539 69.2031 729.289 69.723C729.039 70.2429 728.914 70.8807 728.914 71.6364C728.914 72.392 729.041 73.0298 729.294 73.5497C729.547 74.0696 729.889 74.4631 730.321 74.7301C730.752 74.9972 731.238 75.1307 731.778 75.1307C732.278 75.1307 732.718 75.0241 733.099 74.8111C733.483 74.5952 733.781 74.2912 733.994 73.8991C734.21 73.5043 734.318 73.0398 734.318 72.5057L734.642 72.5739H732.017V71.6364H735.341V72.5739C735.341 73.2926 735.187 73.9176 734.88 74.4489C734.576 74.9801 734.156 75.392 733.619 75.6847C733.085 75.9744 732.471 76.1193 731.778 76.1193C731.005 76.1193 730.326 75.9375 729.741 75.5739C729.159 75.2102 728.704 74.6932 728.377 74.0227C728.054 73.3523 727.892 72.5568 727.892 71.6364C727.892 70.946 727.984 70.3253 728.169 69.7741C728.356 69.2202 728.62 68.7486 728.961 68.3594C729.302 67.9702 729.706 67.6719 730.172 67.4645C730.637 67.2571 731.15 67.1534 731.71 67.1534C732.17 67.1534 732.599 67.223 732.997 67.3622C733.397 67.4986 733.754 67.6932 734.066 67.946C734.382 68.196 734.645 68.4957 734.855 68.8452C735.065 69.1918 735.21 69.5767 735.289 70H734.199Z" fill="#4F4F4F"/>
<rect x="682" y="68" width="21" height="8" rx="4" fill="#A155B9"/>
<path d="M827.08 70H826.023C825.96 69.696 825.851 69.429 825.695 69.1989C825.541 68.9688 825.354 68.7756 825.132 68.6193C824.913 68.4602 824.67 68.3409 824.403 68.2614C824.136 68.1818 823.858 68.142 823.568 68.142C823.04 68.142 822.561 68.2756 822.132 68.5426C821.706 68.8097 821.366 69.2031 821.114 69.723C820.864 70.2429 820.739 70.8807 820.739 71.6364C820.739 72.392 820.864 73.0298 821.114 73.5497C821.366 74.0696 821.706 74.4631 822.132 74.7301C822.561 74.9972 823.04 75.1307 823.568 75.1307C823.858 75.1307 824.136 75.0909 824.403 75.0114C824.67 74.9318 824.913 74.8139 825.132 74.6577C825.354 74.4986 825.541 74.304 825.695 74.0739C825.851 73.8409 825.96 73.5739 826.023 73.2727H827.08C827 73.7187 826.855 74.1179 826.645 74.4702C826.435 74.8224 826.173 75.1222 825.861 75.3693C825.548 75.6136 825.197 75.7997 824.808 75.9276C824.422 76.0554 824.009 76.1193 823.568 76.1193C822.824 76.1193 822.162 75.9375 821.582 75.5739C821.003 75.2102 820.547 74.6932 820.214 74.0227C819.882 73.3523 819.716 72.5568 819.716 71.6364C819.716 70.7159 819.882 69.9205 820.214 69.25C820.547 68.5795 821.003 68.0625 821.582 67.6989C822.162 67.3352 822.824 67.1534 823.568 67.1534C824.009 67.1534 824.422 67.2173 824.808 67.3452C825.197 67.473 825.548 67.6605 825.861 67.9077C826.173 68.152 826.435 68.4503 826.645 68.8026C826.855 69.152 827 69.5511 827.08 70ZM828.787 76V67.2727H831.838C832.446 67.2727 832.948 67.3778 833.343 67.5881C833.738 67.7955 834.032 68.0753 834.225 68.4276C834.418 68.777 834.515 69.1648 834.515 69.5909C834.515 69.9659 834.448 70.2756 834.314 70.5199C834.184 70.7642 834.01 70.9574 833.794 71.0994C833.581 71.2415 833.35 71.3466 833.1 71.4148V71.5C833.367 71.517 833.635 71.6108 833.905 71.7812C834.175 71.9517 834.401 72.196 834.583 72.5142C834.765 72.8324 834.855 73.2216 834.855 73.6818C834.855 74.1193 834.756 74.5128 834.557 74.8622C834.358 75.2116 834.044 75.4886 833.615 75.6932C833.186 75.8977 832.628 76 831.941 76H828.787ZM829.844 75.0625H831.941C832.631 75.0625 833.121 74.929 833.411 74.6619C833.703 74.392 833.85 74.0653 833.85 73.6818C833.85 73.3864 833.775 73.1136 833.624 72.8636C833.473 72.6108 833.259 72.4091 832.98 72.2585C832.702 72.1051 832.373 72.0284 831.992 72.0284H829.844V75.0625ZM829.844 71.108H831.804C832.123 71.108 832.409 71.0455 832.665 70.9205C832.924 70.7955 833.128 70.6193 833.279 70.392C833.432 70.1648 833.509 69.8977 833.509 69.5909C833.509 69.2074 833.375 68.8821 833.108 68.6151C832.841 68.3452 832.418 68.2102 831.838 68.2102H829.844V71.108ZM843.615 70H842.558C842.495 69.696 842.386 69.429 842.23 69.1989C842.076 68.9688 841.889 68.7756 841.667 68.6193C841.449 68.4602 841.206 68.3409 840.939 68.2614C840.672 68.1818 840.393 68.142 840.103 68.142C839.575 68.142 839.096 68.2756 838.667 68.5426C838.241 68.8097 837.902 69.2031 837.649 69.723C837.399 70.2429 837.274 70.8807 837.274 71.6364C837.274 72.392 837.399 73.0298 837.649 73.5497C837.902 74.0696 838.241 74.4631 838.667 74.7301C839.096 74.9972 839.575 75.1307 840.103 75.1307C840.393 75.1307 840.672 75.0909 840.939 75.0114C841.206 74.9318 841.449 74.8139 841.667 74.6577C841.889 74.4986 842.076 74.304 842.23 74.0739C842.386 73.8409 842.495 73.5739 842.558 73.2727H843.615C843.535 73.7187 843.39 74.1179 843.18 74.4702C842.97 74.8224 842.708 75.1222 842.396 75.3693C842.083 75.6136 841.733 75.7997 841.343 75.9276C840.957 76.0554 840.544 76.1193 840.103 76.1193C839.359 76.1193 838.697 75.9375 838.118 75.5739C837.538 75.2102 837.082 74.6932 836.75 74.0227C836.417 73.3523 836.251 72.5568 836.251 71.6364C836.251 70.7159 836.417 69.9205 836.75 69.25C837.082 68.5795 837.538 68.0625 838.118 67.6989C838.697 67.3352 839.359 67.1534 840.103 67.1534C840.544 67.1534 840.957 67.2173 841.343 67.3452C841.733 67.473 842.083 67.6605 842.396 67.9077C842.708 68.152 842.97 68.4503 843.18 68.8026C843.39 69.152 843.535 69.5511 843.615 70ZM844.845 68.2102V67.2727H851.391V68.2102H848.646V76H847.589V68.2102H844.845Z" fill="#4F4F4F"/>
<rect x="789" y="68" width="21" height="8" rx="4" fill="#F765A3"/>
<path d="M139.208 309.727H140.088V314.926C140.088 315.39 140.003 315.784 139.833 316.109C139.662 316.433 139.422 316.679 139.112 316.847C138.802 317.015 138.436 317.099 138.015 317.099C137.617 317.099 137.263 317.027 136.953 316.883C136.643 316.736 136.399 316.528 136.221 316.258C136.044 315.988 135.955 315.667 135.955 315.295H136.821C136.821 315.501 136.872 315.681 136.974 315.835C137.078 315.987 137.22 316.105 137.4 316.19C137.58 316.276 137.785 316.318 138.015 316.318C138.268 316.318 138.483 316.265 138.661 316.158C138.838 316.052 138.973 315.896 139.066 315.69C139.16 315.481 139.208 315.227 139.208 314.926V309.727ZM143.345 317.128C142.999 317.128 142.685 317.063 142.404 316.933C142.122 316.8 141.898 316.609 141.733 316.361C141.567 316.11 141.484 315.807 141.484 315.452C141.484 315.139 141.546 314.886 141.669 314.692C141.792 314.495 141.956 314.341 142.162 314.23C142.368 314.119 142.596 314.036 142.844 313.982C143.095 313.925 143.347 313.88 143.6 313.847C143.932 313.804 144.201 313.772 144.407 313.751C144.615 313.727 144.766 313.688 144.861 313.634C144.958 313.579 145.007 313.484 145.007 313.349V313.321C145.007 312.971 144.911 312.698 144.719 312.504C144.53 312.31 144.242 312.213 143.856 312.213C143.456 312.213 143.142 312.301 142.915 312.476C142.688 312.651 142.528 312.838 142.436 313.037L141.64 312.753C141.782 312.421 141.972 312.163 142.208 311.979C142.448 311.792 142.708 311.661 142.99 311.588C143.274 311.512 143.553 311.474 143.828 311.474C144.003 311.474 144.204 311.496 144.431 311.538C144.661 311.579 144.882 311.663 145.096 311.79C145.311 311.918 145.49 312.111 145.632 312.369C145.774 312.627 145.845 312.973 145.845 313.406V317H145.007V316.261H144.964C144.907 316.38 144.813 316.506 144.68 316.641C144.547 316.776 144.371 316.891 144.151 316.986C143.931 317.08 143.662 317.128 143.345 317.128ZM143.473 316.375C143.804 316.375 144.083 316.31 144.311 316.18C144.54 316.049 144.713 315.881 144.829 315.675C144.948 315.469 145.007 315.253 145.007 315.026V314.259C144.971 314.301 144.893 314.34 144.772 314.376C144.654 314.409 144.517 314.438 144.36 314.464C144.207 314.488 144.056 314.509 143.909 314.528C143.765 314.545 143.648 314.559 143.558 314.571C143.34 314.599 143.136 314.646 142.947 314.71C142.76 314.771 142.609 314.865 142.493 314.99C142.379 315.113 142.322 315.281 142.322 315.494C142.322 315.786 142.43 316.006 142.645 316.155C142.863 316.302 143.139 316.375 143.473 316.375ZM148.213 313.719V317H147.374V311.545H148.184V312.398H148.255C148.383 312.121 148.577 311.898 148.838 311.73C149.098 311.56 149.434 311.474 149.846 311.474C150.215 311.474 150.539 311.55 150.816 311.702C151.093 311.851 151.308 312.078 151.462 312.384C151.616 312.687 151.693 313.07 151.693 313.534V317H150.855V313.591C150.855 313.162 150.743 312.829 150.521 312.589C150.298 312.348 149.993 312.227 149.605 312.227C149.337 312.227 149.098 312.285 148.887 312.401C148.679 312.517 148.514 312.687 148.394 312.909C148.273 313.132 148.213 313.402 148.213 313.719Z" fill="#4F4F4F"/>
<path d="M266.131 317V309.727H270.491V310.509H267.011V312.966H270.165V313.747H267.011V317H266.131ZM273.773 317.114C273.247 317.114 272.794 316.998 272.413 316.766C272.034 316.531 271.741 316.205 271.536 315.786C271.332 315.364 271.23 314.874 271.23 314.315C271.23 313.757 271.332 313.264 271.536 312.838C271.741 312.41 272.028 312.076 272.395 311.837C272.764 311.595 273.195 311.474 273.688 311.474C273.972 311.474 274.252 311.522 274.529 311.616C274.806 311.711 275.058 311.865 275.286 312.078C275.513 312.289 275.694 312.568 275.829 312.916C275.964 313.264 276.031 313.693 276.031 314.202V314.557H271.827V313.832H275.179C275.179 313.525 275.117 313.25 274.994 313.009C274.874 312.767 274.701 312.576 274.476 312.437C274.253 312.297 273.991 312.227 273.688 312.227C273.354 312.227 273.065 312.31 272.821 312.476C272.58 312.639 272.394 312.852 272.263 313.115C272.133 313.378 272.068 313.66 272.068 313.96V314.443C272.068 314.855 272.139 315.204 272.281 315.491C272.426 315.775 272.626 315.991 272.881 316.141C273.137 316.287 273.434 316.361 273.773 316.361C273.993 316.361 274.192 316.33 274.369 316.268C274.549 316.205 274.704 316.11 274.835 315.984C274.965 315.857 275.065 315.698 275.136 315.509L275.946 315.736C275.861 316.01 275.718 316.252 275.516 316.46C275.315 316.666 275.067 316.827 274.771 316.943C274.475 317.057 274.142 317.114 273.773 317.114ZM277.42 317V309.727H278.258V312.412H278.329C278.39 312.317 278.476 312.196 278.585 312.05C278.696 311.901 278.854 311.768 279.06 311.652C279.269 311.534 279.55 311.474 279.906 311.474C280.365 311.474 280.77 311.589 281.12 311.819C281.47 312.049 281.744 312.374 281.94 312.795C282.137 313.217 282.235 313.714 282.235 314.287C282.235 314.865 282.137 315.365 281.94 315.789C281.744 316.21 281.472 316.537 281.124 316.769C280.776 316.999 280.374 317.114 279.92 317.114C279.569 317.114 279.289 317.056 279.078 316.94C278.867 316.821 278.705 316.687 278.592 316.538C278.478 316.387 278.39 316.261 278.329 316.162H278.229V317H277.42ZM278.244 314.273C278.244 314.685 278.304 315.048 278.425 315.363C278.545 315.675 278.722 315.92 278.954 316.098C279.186 316.273 279.47 316.361 279.806 316.361C280.156 316.361 280.449 316.268 280.683 316.084C280.92 315.897 281.098 315.646 281.216 315.331C281.337 315.014 281.397 314.661 281.397 314.273C281.397 313.889 281.338 313.544 281.219 313.236C281.103 312.926 280.927 312.681 280.69 312.501C280.456 312.318 280.161 312.227 279.806 312.227C279.465 312.227 279.179 312.314 278.947 312.487C278.715 312.657 278.54 312.896 278.421 313.204C278.303 313.509 278.244 313.866 278.244 314.273Z" fill="#4F4F4F"/>
<path d="M395.755 309.727H396.806L399.277 315.764H399.363L401.834 309.727H402.885V317H402.062V311.474H401.991L399.718 317H398.922L396.65 311.474H396.579V317H395.755V309.727ZM406.143 317.128C405.797 317.128 405.483 317.063 405.202 316.933C404.92 316.8 404.696 316.609 404.53 316.361C404.365 316.11 404.282 315.807 404.282 315.452C404.282 315.139 404.343 314.886 404.467 314.692C404.59 314.495 404.754 314.341 404.96 314.23C405.166 314.119 405.393 314.036 405.642 313.982C405.893 313.925 406.145 313.88 406.398 313.847C406.73 313.804 406.998 313.772 407.204 313.751C407.413 313.727 407.564 313.688 407.659 313.634C407.756 313.579 407.805 313.484 407.805 313.349V313.321C407.805 312.971 407.709 312.698 407.517 312.504C407.328 312.31 407.04 312.213 406.654 312.213C406.254 312.213 405.94 312.301 405.713 312.476C405.486 312.651 405.326 312.838 405.234 313.037L404.438 312.753C404.58 312.421 404.77 312.163 405.006 311.979C405.245 311.792 405.506 311.661 405.788 311.588C406.072 311.512 406.351 311.474 406.626 311.474C406.801 311.474 407.002 311.496 407.229 311.538C407.459 311.579 407.68 311.663 407.893 311.79C408.109 311.918 408.288 312.111 408.43 312.369C408.572 312.627 408.643 312.973 408.643 313.406V317H407.805V316.261H407.762C407.705 316.38 407.61 316.506 407.478 316.641C407.345 316.776 407.169 316.891 406.949 316.986C406.729 317.08 406.46 317.128 406.143 317.128ZM406.271 316.375C406.602 316.375 406.881 316.31 407.109 316.18C407.338 316.049 407.511 315.881 407.627 315.675C407.745 315.469 407.805 315.253 407.805 315.026V314.259C407.769 314.301 407.691 314.34 407.57 314.376C407.452 314.409 407.315 314.438 407.158 314.464C407.004 314.488 406.854 314.509 406.707 314.528C406.563 314.545 406.446 314.559 406.356 314.571C406.138 314.599 405.934 314.646 405.745 314.71C405.558 314.771 405.406 314.865 405.29 314.99C405.177 315.113 405.12 315.281 405.12 315.494C405.12 315.786 405.228 316.006 405.443 316.155C405.661 316.302 405.937 316.375 406.271 316.375ZM410.172 317V311.545H410.982V312.369H411.039C411.138 312.099 411.318 311.88 411.579 311.712C411.839 311.544 412.133 311.46 412.459 311.46C412.521 311.46 412.598 311.461 412.69 311.464C412.782 311.466 412.852 311.47 412.9 311.474V312.327C412.871 312.32 412.806 312.309 412.704 312.295C412.605 312.278 412.499 312.27 412.388 312.27C412.123 312.27 411.886 312.326 411.678 312.437C411.472 312.546 411.309 312.697 411.188 312.891C411.07 313.083 411.01 313.302 411.01 313.548V317H410.172Z" fill="#4F4F4F"/>
<path d="M520.893 317H519.97L522.64 309.727H523.549L526.22 317H525.296L523.123 310.878H523.066L520.893 317ZM521.234 314.159H524.955V314.94H521.234V314.159ZM527.239 319.045V311.545H528.048V312.412H528.148C528.209 312.317 528.295 312.196 528.403 312.05C528.515 311.901 528.673 311.768 528.879 311.652C529.088 311.534 529.369 311.474 529.725 311.474C530.184 311.474 530.589 311.589 530.939 311.819C531.289 312.049 531.563 312.374 531.759 312.795C531.956 313.217 532.054 313.714 532.054 314.287C532.054 314.865 531.956 315.365 531.759 315.789C531.563 316.21 531.291 316.537 530.943 316.769C530.595 316.999 530.193 317.114 529.739 317.114C529.388 317.114 529.108 317.056 528.897 316.94C528.686 316.821 528.524 316.687 528.411 316.538C528.297 316.387 528.209 316.261 528.148 316.162H528.077V319.045H527.239ZM528.063 314.273C528.063 314.685 528.123 315.048 528.244 315.363C528.364 315.675 528.541 315.92 528.773 316.098C529.005 316.273 529.289 316.361 529.625 316.361C529.975 316.361 530.268 316.268 530.502 316.084C530.739 315.897 530.917 315.646 531.035 315.331C531.156 315.014 531.216 314.661 531.216 314.273C531.216 313.889 531.157 313.544 531.038 313.236C530.922 312.926 530.746 312.681 530.509 312.501C530.275 312.318 529.98 312.227 529.625 312.227C529.284 312.227 528.998 312.314 528.766 312.487C528.534 312.657 528.359 312.896 528.24 313.204C528.122 313.509 528.063 313.866 528.063 314.273ZM533.332 317V311.545H534.142V312.369H534.199C534.298 312.099 534.478 311.88 534.739 311.712C534.999 311.544 535.293 311.46 535.619 311.46C535.681 311.46 535.758 311.461 535.85 311.464C535.943 311.466 536.012 311.47 536.06 311.474V312.327C536.031 312.32 535.966 312.309 535.864 312.295C535.765 312.278 535.66 312.27 535.548 312.27C535.283 312.27 535.046 312.326 534.838 312.437C534.632 312.546 534.469 312.697 534.348 312.891C534.23 313.083 534.171 313.302 534.171 313.548V317H533.332Z" fill="#4F4F4F"/>
<path d="M653.93 309.727H654.981L657.452 315.764H657.537L660.009 309.727H661.06V317H660.236V311.474H660.165L657.893 317H657.097L654.824 311.474H654.753V317H653.93V309.727ZM664.317 317.128C663.972 317.128 663.658 317.063 663.376 316.933C663.095 316.8 662.871 316.609 662.705 316.361C662.54 316.11 662.457 315.807 662.457 315.452C662.457 315.139 662.518 314.886 662.641 314.692C662.764 314.495 662.929 314.341 663.135 314.23C663.341 314.119 663.568 314.036 663.817 313.982C664.068 313.925 664.32 313.88 664.573 313.847C664.905 313.804 665.173 313.772 665.379 313.751C665.588 313.727 665.739 313.688 665.834 313.634C665.931 313.579 665.979 313.484 665.979 313.349V313.321C665.979 312.971 665.884 312.698 665.692 312.504C665.502 312.31 665.215 312.213 664.829 312.213C664.429 312.213 664.115 312.301 663.888 312.476C663.661 312.651 663.501 312.838 663.408 313.037L662.613 312.753C662.755 312.421 662.944 312.163 663.181 311.979C663.42 311.792 663.681 311.661 663.962 311.588C664.246 311.512 664.526 311.474 664.8 311.474C664.976 311.474 665.177 311.496 665.404 311.538C665.634 311.579 665.855 311.663 666.068 311.79C666.284 311.918 666.462 312.111 666.604 312.369C666.746 312.627 666.817 312.973 666.817 313.406V317H665.979V316.261H665.937C665.88 316.38 665.785 316.506 665.653 316.641C665.52 316.776 665.344 316.891 665.124 316.986C664.903 317.08 664.635 317.128 664.317 317.128ZM664.445 316.375C664.777 316.375 665.056 316.31 665.283 316.18C665.513 316.049 665.686 315.881 665.802 315.675C665.92 315.469 665.979 315.253 665.979 315.026V314.259C665.944 314.301 665.866 314.34 665.745 314.376C665.627 314.409 665.489 314.438 665.333 314.464C665.179 314.488 665.029 314.509 664.882 314.528C664.738 314.545 664.621 314.559 664.531 314.571C664.313 314.599 664.109 314.646 663.92 314.71C663.733 314.771 663.581 314.865 663.465 314.99C663.352 315.113 663.295 315.281 663.295 315.494C663.295 315.786 663.402 316.006 663.618 316.155C663.836 316.302 664.112 316.375 664.445 316.375ZM668.692 319.045C668.55 319.045 668.423 319.034 668.312 319.01C668.2 318.989 668.123 318.967 668.081 318.946L668.294 318.207C668.497 318.259 668.677 318.278 668.834 318.264C668.99 318.25 669.128 318.18 669.249 318.055C669.372 317.932 669.485 317.732 669.586 317.455L669.743 317.028L667.726 311.545H668.635L670.14 315.892H670.197L671.703 311.545H672.612L670.297 317.795C670.193 318.077 670.064 318.31 669.91 318.495C669.756 318.682 669.577 318.821 669.373 318.911C669.172 319 668.945 319.045 668.692 319.045Z" fill="#4F4F4F"/>
<path d="M787.12 309.727H788.001V314.926C788.001 315.39 787.915 315.784 787.745 316.109C787.574 316.433 787.334 316.679 787.024 316.847C786.714 317.015 786.348 317.099 785.927 317.099C785.529 317.099 785.175 317.027 784.865 316.883C784.555 316.736 784.311 316.528 784.133 316.258C783.956 315.988 783.867 315.667 783.867 315.295H784.733C784.733 315.501 784.784 315.681 784.886 315.835C784.99 315.987 785.132 316.105 785.312 316.19C785.492 316.276 785.697 316.318 785.927 316.318C786.18 316.318 786.395 316.265 786.573 316.158C786.751 316.052 786.885 315.896 786.978 315.69C787.073 315.481 787.12 315.227 787.12 314.926V309.727ZM793.089 314.77V311.545H793.927V317H793.089V316.077H793.032C792.905 316.354 792.706 316.589 792.436 316.783C792.166 316.975 791.825 317.071 791.413 317.071C791.072 317.071 790.769 316.996 790.504 316.847C790.239 316.696 790.031 316.469 789.879 316.165C789.728 315.86 789.652 315.475 789.652 315.011V311.545H790.49V314.955C790.49 315.352 790.601 315.67 790.824 315.906C791.049 316.143 791.335 316.261 791.683 316.261C791.891 316.261 792.103 316.208 792.319 316.102C792.537 315.995 792.719 315.832 792.866 315.612C793.015 315.391 793.089 315.111 793.089 314.77ZM796.3 313.719V317H795.462V311.545H796.272V312.398H796.343C796.471 312.121 796.665 311.898 796.925 311.73C797.186 311.56 797.522 311.474 797.934 311.474C798.303 311.474 798.626 311.55 798.903 311.702C799.18 311.851 799.396 312.078 799.55 312.384C799.704 312.687 799.781 313.07 799.781 313.534V317H798.942V313.591C798.942 313.162 798.831 312.829 798.609 312.589C798.386 312.348 798.081 312.227 797.692 312.227C797.425 312.227 797.186 312.285 796.975 312.401C796.767 312.517 796.602 312.687 796.482 312.909C796.361 313.132 796.3 313.402 796.3 313.719Z" fill="#4F4F4F"/>
<circle cx="82.5" cy="272.5" r="3.5" fill="#165BAA"/>
<circle cx="212.5" cy="245.5" r="3.5" fill="#165BAA"/>
<circle cx="467.5" cy="164.5" r="3.5" fill="#165BAA"/>
<circle cx="595.5" cy="218.5" r="3.5" fill="#165BAA"/>
<circle cx="723.5" cy="191.5" r="3.5" fill="#165BAA"/>
<circle cx="851.5" cy="272.5" r="3.5" fill="#165BAA"/>
<path d="M83 273L214.21 245L340.605 273L468.204 165L595.802 218L723.401 191.5L851 273" stroke="#165BAA" stroke-width="2"/>
<circle cx="82.5" cy="217.5" r="3.5" fill="#A155B9"/>
<circle cx="212.5" cy="191.5" r="3.5" fill="#A155B9"/>
<circle cx="467.5" cy="245.5" r="3.5" fill="#A155B9"/>
<circle cx="595.5" cy="273.5" r="3.5" fill="#A155B9"/>
<circle cx="723.5" cy="245.5" r="3.5" fill="#A155B9"/>
<circle cx="851.5" cy="218.5" r="3.5" fill="#A155B9"/>
<path d="M84 216.5L214.176 191L340.735 216.5L467.295 245L596.265 273L724.03 245L853 216.5" stroke="#A155B9" stroke-width="2"/>
<circle cx="83.5" cy="245.5" r="3.5" fill="#F765A3"/>
<circle cx="212.5" cy="272.5" r="3.5" fill="#F765A3"/>
<circle cx="467.5" cy="273.5" r="3.5" fill="#F765A3"/>
<circle cx="595.5" cy="303.5" r="3.5" fill="#F765A3"/>
<circle cx="723.5" cy="273.5" r="3.5" fill="#F765A3"/>
<circle cx="851.5" cy="245.5" r="3.5" fill="#F765A3"/>
<path d="M88 246L213.161 272.765L340.729 246L468.297 272.765L595.864 303L723.432 272.765L851 246" stroke="#F765A3" stroke-width="2"/>
<defs>
<filter id="filter0_d_204_9529" x="0" y="0" width="902" height="422" filterUnits="userSpaceOnUse" color-interpolation-filters="sRGB">
<feFlood flood-opacity="0" result="BackgroundImageFix"/>
<feColorMatrix in="SourceAlpha" type="matrix" values="0 0 0 0 0 0 0 0 0 0 0 0 0 0 0 0 0 0 127 0" result="hardAlpha"/>
<feOffset dy="2"/>
<feGaussianBlur stdDeviation="5"/>
<feComposite in2="hardAlpha" operator="out"/>
<feColorMatrix type="matrix" values="0 0 0 0 0 0 0 0 0 0 0 0 0 0 0 0 0 0 0.1 0"/>
<feBlend mode="normal" in2="BackgroundImageFix" result="effect1_dropShadow_204_9529"/>
<feBlend mode="normal" in="SourceGraphic" in2="effect1_dropShadow_204_9529" result="shape"/>
</filter>
</defs>
</svg>
