<svg version="1.1" id="Layer_1" xmlns="http://www.w3.org/2000/svg"
                                                        xmlns:xlink="http://www.w3.org/1999/xlink" x="0px" y="0px"
                                                        viewBox="0 0 15.9 16" style="enable-background:new 0 0 15.9 16;"
                                                        xml:space="preserve" width="16" height="16">
                                                        <g>
                                                            <g>
                                                                <path fill="currentColor" d="M11.9,15.9c-2.6,0-5.3,0-7.9,0c0,0,0,0-0.1,0c-0.7-0.2-1.1-0.7-1.1-1.4c0-0.5,0-1.1,0-1.6c0-0.1,0-0.3,0-0.4
            c-0.2,0-0.3,0-0.4,0c-1.3,0-2.3-1-2.3-2.3c0-1.2,0-2.5,0-3.7c0-0.2,0-0.5,0.1-0.7c0.3-1,1.2-1.6,2.2-1.6c0.1,0,0.3,0,0.4,0
            c0-0.6,0-1.1,0-1.6c0-1.3,1-2.4,2.4-2.4c1.9,0,3.7,0,5.6,0c1.3,0,2.3,1,2.4,2.4c0,0.5,0,1,0,1.5c0,0.1,0,0.1,0,0.2
            c0.2,0,0.3,0,0.5,0c1,0,1.9,0.7,2.2,1.7c0,0.1,0.1,0.2,0.1,0.4c0,1.4,0,2.8,0,4.3c0,0,0,0.1,0,0.1c-0.2,1-1,1.8-2,1.9
            c-0.2,0-0.5,0-0.7,0c0,0.1,0,0.1,0,0.2c0,0.6,0,1.3,0,1.9c0,0.6-0.4,1.1-0.9,1.3C12.1,15.9,12,15.9,11.9,15.9z M2.8,9.9
            c-0.1,0-0.2,0-0.3,0C2.2,9.9,2,9.7,2,9.5C2,9.3,2.2,9.1,2.4,9c0.1,0,0.1,0,0.2,0c3.6,0,7.1,0,10.7,0c0,0,0.1,0,0.1,0
            c0.3,0,0.5,0.2,0.5,0.5c0,0.3-0.2,0.5-0.5,0.5c-0.1,0-0.2,0-0.3,0c0,0.5,0,1,0,1.5c0.1,0,0.2,0,0.4,0c0.9,0,1.5-0.6,1.5-1.5
            c0-1.2,0-2.4,0-3.6c0-0.9-0.6-1.4-1.4-1.4C9.8,5,6.1,5,2.4,5C1.6,5,0.9,5.6,0.9,6.4c0,1.2,0,2.4,0,3.6c0,0.1,0,0.3,0.1,0.4
            c0.2,0.7,0.8,1.1,1.8,1C2.8,11,2.8,10.5,2.8,9.9z M12.2,10c-2.8,0-5.6,0-8.5,0c0,0,0,0.1,0,0.1c0,1.5,0,3,0,4.5
            c0,0.3,0.2,0.5,0.5,0.5c2.5,0,5,0,7.4,0c0.3,0,0.5-0.2,0.5-0.5c0-1.5,0-2.9,0-4.4C12.2,10,12.2,10,12.2,10z M3.7,4.1
            c2.8,0,5.6,0,8.4,0c0-0.1,0-0.1,0-0.1c0-0.5,0-1.1,0-1.6c0-0.7-0.6-1.3-1.3-1.3C8.9,1,7,1,5,1C4.4,1,3.8,1.5,3.7,2.2
            C3.7,2.8,3.7,3.4,3.7,4.1z" />
                                                                <path fill="currentColor" d="M3.2,6.1c0.2,0,0.5,0,0.7,0c0.3,0,0.5,0.2,0.5,0.5C4.4,6.8,4.2,7,4,7C3.5,7,3,7,2.5,7C2.2,7,2,6.8,2,6.5
            c0-0.3,0.2-0.5,0.5-0.5C2.8,6.1,3,6.1,3.2,6.1z" />
                                                                <path fill="currentColor" d="M7.9,11c0.4,0,0.8,0,1.2,0c0.3,0,0.5,0.2,0.5,0.5c0,0.3-0.2,0.5-0.5,0.5c-0.8,0-1.6,0-2.4,0
            c-0.3,0-0.5-0.2-0.5-0.5c0-0.3,0.2-0.5,0.5-0.5C7.1,11,7.5,11,7.9,11z" />
                                                                <path fill="currentColor" d="M7.9,13c0.4,0,0.8,0,1.2,0c0.3,0,0.5,0.2,0.5,0.5c0,0.3-0.2,0.5-0.5,0.5c-0.8,0-1.6,0-2.4,0
            c-0.3,0-0.5-0.2-0.5-0.5c0-0.3,0.2-0.5,0.5-0.5C7.1,13,7.5,13,7.9,13z" />
                                                            </g>
                                                        </g>
                                                    </svg>