<?xml version="1.0" encoding="utf-8"?>
<!-- Generator: Adobe Illustrator 25.4.1, SVG Export Plug-In . SVG Version: 6.00 Build 0)  -->
<svg version="1.1" id="Layer_1" xmlns="http://www.w3.org/2000/svg" xmlns:xlink="http://www.w3.org/1999/xlink" x="0px" y="0px"
	 viewBox="0 0 15.85 16" style="enable-background:new 0 0 15.85 16;" xml:space="preserve">
<style type="text/css">
	.st0{fill:#668080;}
</style>
<g>
	<g>
		<path class="st0" d="M15.33,14.97l-4.56-4.56c0.95-1.05,1.53-2.44,1.53-3.97c0-3.27-2.66-5.94-5.94-5.94S0.42,3.16,0.42,6.44
			s2.66,5.94,5.94,5.94c1.52,0,2.91-0.58,3.97-1.53l4.56,4.56c0.06,0.06,0.14,0.09,0.22,0.09s0.16-0.03,0.22-0.09
			C15.45,15.29,15.45,15.09,15.33,14.97z M6.36,11.75c-2.93,0-5.31-2.38-5.31-5.31s2.38-5.31,5.31-5.31s5.31,2.38,5.31,5.31
			S9.29,11.75,6.36,11.75z"/>
	</g>
</g>
</svg>
