<?xml version="1.0" encoding="utf-8"?>
<!-- Generator: Adobe Illustrator 24.0.0, SVG Export Plug-In . SVG Version: 6.00 Build 0)  -->
<svg version="1.1" id="Layer_1" xmlns="http://www.w3.org/2000/svg" xmlns:xlink="http://www.w3.org/1999/xlink" x="0px" y="0px"
	 viewBox="0 0 15.9 16" style="enable-background:new 0 0 15.9 16;" xml:space="preserve">
<style type="text/css">
	.st0{fill:#FFFFFF;}
</style>
<g>
	<path class="st0" d="M15.7,8.1h-1.8l-0.3-1.2c0-0.1-0.1-0.1-0.2-0.1c-0.1,0-0.1,0.1-0.1,0.1l-0.4,4.4l-0.4-7.1
		C12.5,4,12.4,4,12.3,4c0,0,0,0,0,0c-0.1,0-0.1,0.1-0.1,0.1l-0.5,5.6L11.4,7c0-0.1-0.1-0.1-0.1-0.1c-0.1,0-0.1,0.1-0.1,0.1L11,8.6
		l-0.2-0.4c0-0.1-0.1-0.1-0.1-0.1H1.3c0,0,0,0-0.1,0C0.5,7,0.1,5.8,0.4,4.7c0.5-1.9,2.3-2.6,3.8-2.5C5.5,2.3,7,3.1,7.1,4.7
		c0,0.1,0.1,0.1,0.1,0.1c0.1,0,0.1-0.1,0.1-0.1C7.6,3.5,8.5,2.5,10,2.2c1.1-0.2,2.7,0,3.6,1.6c0.6,1.1,0.5,1.7,0.5,1.7
		c0,0.1,0,0.2,0.1,0.2c0.1,0,0.2,0,0.2-0.1c0,0,0.1-0.7-0.5-1.9c-0.8-1.4-2.3-2-3.9-1.7C8.6,2.2,7.7,3,7.3,4C6.8,2.7,5.5,2,4.2,1.9
		C2.6,1.8,0.7,2.6,0.1,4.7c-1.1,4.1,6.4,9.2,7.1,9.5c0,0,0,0,0.1,0c0,0,0,0,0.1,0c0.3-0.1,2.3-1.5,3.7-3c0.1-0.1,0.1-0.2,0-0.2
		c-0.1-0.1-0.2-0.1-0.2,0c-1.3,1.4-3.1,2.7-3.5,2.9c-0.5-0.3-2.4-1.6-4.1-3.2C2.6,10,1.9,9.2,1.4,8.4h9.2l0.4,0.9
		c0,0.1,0.1,0.1,0.2,0.1c0.1,0,0.1-0.1,0.1-0.1l0.1-0.8l0.3,2.7c0,0.1,0.1,0.1,0.1,0.1c0.1,0,0.1-0.1,0.1-0.1l0.4-5l0.4,6.9
		c0,0.1,0.1,0.1,0.1,0.1c0,0,0,0,0,0c0.1,0,0.1-0.1,0.1-0.1l0.5-5.3l0.1,0.5c0,0.1,0.1,0.1,0.1,0.1h1.9c0.1,0,0.1-0.1,0.1-0.1
		S15.8,8.1,15.7,8.1z"/>
</g>
</svg>
