<?xml version="1.0" encoding="utf-8"?>
<!-- Generator: Adobe Illustrator 25.4.1, SVG Export Plug-In . SVG Version: 6.00 Build 0)  -->
<svg version="1.1" id="Layer_1" xmlns="http://www.w3.org/2000/svg" xmlns:xlink="http://www.w3.org/1999/xlink" x="0px" y="0px"
	 viewBox="0 0 122.37 32.27" style="enable-background:new 0 0 122.37 32.27;" xml:space="preserve">
<style type="text/css">
	.st0{fill:#FFFFFF;}
</style>
<g>
	<path class="st0" d="M121.98,16.32H36.32l-0.72-3.24c-0.04-0.19-0.21-0.31-0.4-0.3c-0.19,0.01-0.34,0.16-0.36,0.35l-1.16,11.4
		L32.53,5.96c-0.01-0.2-0.18-0.36-0.38-0.36c0,0,0,0,0,0c-0.2,0-0.37,0.15-0.39,0.35l-1.24,14.54l-0.82-6.91
		c-0.02-0.2-0.19-0.33-0.39-0.34c-0.2,0-0.36,0.15-0.38,0.35l-0.38,4.1l-0.43-1.12c-0.06-0.15-0.2-0.25-0.36-0.25H3.19
		c-0.07,0-0.13,0.02-0.18,0.05c-1.73-2.87-2.73-5.94-1.98-8.78c1.31-4.98,5.88-6.89,9.83-6.58c3.53,0.28,7.28,2.44,7.69,6.62
		c0.02,0.2,0.19,0.35,0.39,0.35c0.2,0,0.37-0.15,0.39-0.35c0.33-3.29,2.94-5.9,6.65-6.65c2.96-0.6,7.18,0.11,9.36,4.1
		c1.51,2.76,1.34,4.44,1.33,4.45C36.64,9.74,36.79,9.94,37,9.96c0.21,0.03,0.41-0.12,0.43-0.34c0.01-0.08,0.22-1.92-1.42-4.92
		c-1.96-3.59-5.96-5.35-10.2-4.49C22.44,0.9,19.9,3,18.94,5.78c-1.19-3.47-4.7-5.28-8.02-5.55C6.65-0.11,1.7,1.97,0.28,7.38
		c-2.82,10.69,16.76,24.06,18.49,24.85c0.05,0.02,0.11,0.04,0.16,0.04c0.06,0,0.11-0.01,0.17-0.04c0.8-0.38,5.99-4,9.59-7.96
		c0.14-0.16,0.13-0.4-0.03-0.55c-0.16-0.14-0.4-0.13-0.55,0.03c-3.31,3.65-8.08,7.04-9.19,7.69c-1.3-0.7-6.24-4.11-10.6-8.49
		c-1.69-1.7-3.46-3.72-4.86-5.87h24.02l0.93,2.42c0.07,0.17,0.24,0.27,0.42,0.24c0.18-0.02,0.32-0.17,0.33-0.35l0.19-2.08l0.83,7.05
		c0.02,0.2,0.19,0.34,0.39,0.34c0.2,0,0.36-0.16,0.38-0.35l1.11-13.08l1.11,18.03c0.01,0.2,0.18,0.36,0.38,0.36c0,0,0.01,0,0.01,0
		c0.2,0,0.37-0.15,0.39-0.35l1.39-13.74l0.27,1.2c0.04,0.18,0.2,0.3,0.38,0.3h85.98c0.21,0,0.39-0.17,0.39-0.39
		C122.37,16.49,122.2,16.32,121.98,16.32z"/>
	<path class="st0" d="M60.47,21.75c-0.89,1.25-1.97,1.88-3.26,1.88h-2.03v-5.03h-7.79v10.87h10.3c3.63,0,6.58-1.19,8.86-3.56
		c1.87-1.95,2.96-4.39,3.29-7.31h-8.2C61.44,19.84,61.06,20.91,60.47,21.75z"/>
	<path class="st0" d="M66.78,6.32c-2.12-2.53-5.31-3.79-9.57-3.79h-9.82v12.34h7.79V8.29h2.03c1.49,0,2.62,0.67,3.41,2.01
		c0.76,1.29,1.14,2.81,1.17,4.57h8.16C69.9,11.65,68.85,8.79,66.78,6.32z"/>
	<polygon class="st0" points="73.25,29.46 81.04,29.46 81.04,19.76 83.49,19.76 87.2,29.46 95.83,29.46 91.32,18.59 73.25,18.59 	
		"/>
	<path class="st0" d="M94.85,13.88c0.59-1.12,0.89-2.41,0.89-3.88c0-2.24-0.81-4.05-2.43-5.42c-1.62-1.37-3.89-2.05-6.81-2.05H73.25
		v12.34h20.86C94.41,14.55,94.67,14.23,94.85,13.88z M86.72,12.16c-0.6,0.41-1.38,0.61-2.36,0.61h-3.33V7.92h3.59
		c2,0,2.99,0.81,2.99,2.44C87.62,11.15,87.32,11.75,86.72,12.16z"/>
	<path class="st0" d="M108.64,20.24c1.16,0.23,1.97,0.5,2.43,0.81c0.45,0.3,0.68,0.73,0.68,1.27c0,1.04-0.98,1.56-2.94,1.56
		c-2.52,0-4.08-1.02-4.68-3.07l-7.23,1.3c1.45,5.16,5.27,7.73,11.45,7.73c3.38,0,6.12-0.8,8.2-2.39c2.08-1.59,3.12-3.67,3.12-6.24
		c0-0.95-0.17-1.82-0.46-2.63h-16.45C104.24,19.22,106.19,19.77,108.64,20.24z"/>
	<path class="st0" d="M115.19,12.9c-1.28-0.49-3.43-1.06-6.47-1.7c-1.1-0.23-1.85-0.48-2.23-0.74c-0.38-0.26-0.58-0.63-0.58-1.1
		c0-1.05,0.85-1.58,2.55-1.58c2.05,0,3.4,0.85,4.07,2.55l6.45-1.95c-1.66-4.15-5.08-6.23-10.24-6.23c-3.41,0-6.02,0.79-7.84,2.38
		c-1.82,1.59-2.72,3.58-2.72,5.97c0,1.66,0.53,3.11,1.53,4.38h18.22C117.15,13.98,116.25,13.31,115.19,12.9z"/>
</g>
</svg>
