<?xml version="1.0" encoding="utf-8"?>
<!-- Generator: Adobe Illustrator 25.4.1, SVG Export Plug-In . SVG Version: 6.00 Build 0)  -->
<svg version="1.1" id="Layer_1" xmlns="http://www.w3.org/2000/svg" xmlns:xlink="http://www.w3.org/1999/xlink" x="0px" y="0px"
	 viewBox="0 0 15.85 16" style="enable-background:new 0 0 15.85 16;" xml:space="preserve">
<style type="text/css">
	.st0{fill:#CA3245;}
</style>
<g id="_01_align_center_6_">
	<path class="st0" d="M14.17,3h-3.12V1.75c0-0.69-0.56-1.25-1.25-1.25H6.05C5.36,0.5,4.8,1.06,4.8,1.75V3H1.67v1.25h1.25v9.38
		c0,1.04,0.84,1.88,1.88,1.88h6.25c1.04,0,1.88-0.84,1.88-1.88V4.25h1.25V3z M6.05,1.75H9.8V3H6.05V1.75z M11.67,13.62
		c0,0.35-0.28,0.62-0.62,0.62H4.8c-0.35,0-0.62-0.28-0.62-0.62V4.25h7.5V13.62z"/>
	<rect x="6.05" y="6.75" class="st0" width="1.25" height="5"/>
	<rect x="8.55" y="6.75" class="st0" width="1.25" height="5"/>
</g>
</svg>
