<?xml version="1.0" encoding="utf-8"?>
<!-- Generator: Adobe Illustrator 25.4.1, SVG Export Plug-In . SVG Version: 6.00 Build 0)  -->
<svg version="1.1" id="Layer_1" xmlns="http://www.w3.org/2000/svg" xmlns:xlink="http://www.w3.org/1999/xlink" x="0px" y="0px"
	 viewBox="0 0 15.85 16" style="enable-background:new 0 0 15.85 16;" xml:space="preserve">
<style type="text/css">
	.st0{fill:#FFFFFF;}
</style>
<g>
	<g>
		<g>
			<path class="st0" d="M2.67,6.67c0.1,1.51,1.35,2.7,2.88,2.7c1.54,0,2.79-1.21,2.89-2.72c0.01-0.03,0.01-0.07,0.01-0.1
				c0-0.03,0.01-0.05,0.01-0.08c0-1.6-1.3-2.9-2.9-2.9s-2.9,1.3-2.9,2.9c0,0.03,0.01,0.06,0.01,0.09C2.66,6.6,2.66,6.63,2.67,6.67z
				 M5.55,8.47c-0.91,0-1.66-0.61-1.91-1.44c0.61,0,1.56-0.13,2.44-0.76c0.27,0.3,0.75,0.68,1.38,0.75
				C7.22,7.86,6.46,8.47,5.55,8.47z M5.55,4.47c0.99,0,1.8,0.72,1.97,1.66C6.94,6.04,6.57,5.43,6.55,5.4
				C6.48,5.28,6.36,5.2,6.23,5.18C6.09,5.16,5.95,5.2,5.85,5.3C5.08,6.02,4.12,6.13,3.58,6.12C3.75,5.19,4.56,4.47,5.55,4.47z"/>
			<path class="st0" d="M14.44,0.5h-3.68c-0.59,0-1.06,0.48-1.06,1.06v3.06c0,1.45,1.07,2.64,2.45,2.86v4.5
				c0,0.43-0.35,0.77-0.77,0.77H10.6V12.6c0-1.26-1.03-2.29-2.29-2.29H2.79c-1.26,0-2.29,1.03-2.29,2.29v2.45
				c0,0.25,0.2,0.45,0.45,0.45h9.19c0.25,0,0.45-0.2,0.45-0.45v-1.39h0.77c0.93,0,1.68-0.75,1.68-1.68v-4.5
				c1.39-0.22,2.45-1.41,2.45-2.86V1.56C15.5,0.98,15.02,0.5,14.44,0.5z M9.69,14.6H1.4v-2c0-0.76,0.62-1.39,1.39-1.39h5.52
				c0.76,0,1.39,0.62,1.39,1.39V14.6z M14.6,4.63c0,1.1-0.9,2-2,2s-2-0.9-2-2V1.56c0-0.09,0.07-0.16,0.16-0.16h3.68
				c0.09,0,0.16,0.07,0.16,0.16V4.63z"/>
		</g>
		<path class="st0" d="M13.52,3.4H12.9V2.79c0-0.17-0.14-0.31-0.31-0.31s-0.31,0.14-0.31,0.31V3.4h-0.61
			c-0.17,0-0.31,0.14-0.31,0.31c0,0.17,0.14,0.31,0.31,0.31h0.61v0.61c0,0.17,0.14,0.31,0.31,0.31S12.9,4.8,12.9,4.63V4.02h0.61
			c0.17,0,0.31-0.14,0.31-0.31C13.82,3.54,13.69,3.4,13.52,3.4z"/>
	</g>
</g>
</svg>
