<?xml version="1.0" encoding="utf-8"?>
<!-- Generator: Adobe Illustrator 25.4.1, SVG Export Plug-In . SVG Version: 6.00 Build 0)  -->
<svg version="1.1" id="Layer_1" xmlns="http://www.w3.org/2000/svg" xmlns:xlink="http://www.w3.org/1999/xlink" x="0px" y="0px"
	 viewBox="0 0 15.85 16" style="enable-background:new 0 0 15.85 16;" xml:space="preserve">
<style type="text/css">
	.st0{fill:#FFFFFF;}
</style>
<path class="st0" d="M12.3,3.62h-1.88V3c0-1.04-0.84-1.88-1.88-1.88H7.3C6.26,1.12,5.42,1.96,5.42,3v0.62H3.55
	c-1.73,0-3.12,1.4-3.12,3.12v5c0,1.73,1.4,3.12,3.12,3.12h8.75c1.73,0,3.12-1.4,3.12-3.12v-5C15.42,5.02,14.02,3.63,12.3,3.62z
	 M6.67,3c0-0.35,0.28-0.62,0.62-0.62h1.25c0.35,0,0.62,0.28,0.62,0.62v0.62h-2.5V3z M14.17,11.75c0,1.04-0.84,1.88-1.88,1.88H3.55
	c-1.04,0-1.88-0.84-1.88-1.88v-5c0-1.04,0.84-1.88,1.88-1.88h8.75c1.04,0,1.88,0.84,1.88,1.88V11.75z M10.42,9.25
	c0,0.35-0.28,0.62-0.62,0.62H8.55v1.25c0,0.35-0.28,0.62-0.62,0.62c-0.35,0-0.62-0.28-0.62-0.62V9.88H6.05
	c-0.35,0-0.62-0.28-0.62-0.62S5.7,8.62,6.05,8.62H7.3V7.38c0-0.35,0.28-0.62,0.62-0.62c0.35,0,0.62,0.28,0.62,0.62v1.25H9.8
	C10.14,8.62,10.42,8.9,10.42,9.25z"/>
</svg>
