<?xml version="1.0" encoding="utf-8"?>
<!-- Generator: Adobe Illustrator 25.4.1, SVG Export Plug-In . SVG Version: 6.00 Build 0)  -->
<svg version="1.1" id="Layer_1" xmlns="http://www.w3.org/2000/svg" xmlns:xlink="http://www.w3.org/1999/xlink" x="0px" y="0px"
	 viewBox="0 0 15.85 16" style="enable-background:new 0 0 15.85 16;" xml:space="preserve">
<style type="text/css">
	.st0{fill:#FFFFFF;}
</style>
<path class="st0" d="M7.92,15.5c-1.02,0-1.97-0.45-2.63-1.22c-0.96,0.11-1.95-0.25-2.67-0.97c-0.72-0.72-1.08-1.71-0.99-2.73
	C0.87,9.98,0.42,9.02,0.42,8s0.45-1.97,1.22-2.63C1.54,4.41,1.9,3.42,2.62,2.7C3.34,1.98,4.33,1.62,5.35,1.7
	c0.6-0.76,1.56-1.2,2.58-1.2s1.97,0.45,2.63,1.22c0.96-0.11,1.95,0.25,2.67,0.97c0.72,0.72,1.08,1.71,0.99,2.73
	c0.76,0.6,1.2,1.56,1.2,2.58s-0.45,1.98-1.22,2.63c0.11,0.96-0.25,1.95-0.97,2.67c-0.72,0.72-1.71,1.08-2.73,0.99
	C9.9,15.05,8.94,15.5,7.92,15.5z M5.34,13.05c0.35,0,0.68,0.15,0.91,0.42c0.42,0.5,1.03,0.78,1.67,0.78s1.26-0.28,1.67-0.78
	c0.25-0.3,0.62-0.45,1.01-0.42c0.65,0.05,1.28-0.18,1.73-0.63c0.46-0.46,0.69-1.09,0.63-1.73c-0.03-0.39,0.12-0.76,0.42-1.01
	c0.49-0.42,0.78-1.03,0.78-1.67s-0.28-1.26-0.78-1.67c-0.3-0.25-0.45-0.62-0.42-1.01c0.05-0.65-0.18-1.28-0.63-1.74
	c-0.46-0.46-1.09-0.68-1.73-0.63C10.22,2.98,9.85,2.83,9.6,2.53c-0.42-0.5-1.03-0.78-1.67-0.78S6.67,2.03,6.25,2.53
	C6,2.83,5.63,2.98,5.24,2.95C4.59,2.89,3.96,3.12,3.5,3.58C3.05,4.04,2.82,4.67,2.87,5.32c0.03,0.39-0.12,0.76-0.42,1.01
	C1.96,6.74,1.67,7.35,1.67,8s0.28,1.26,0.78,1.67c0.3,0.25,0.45,0.62,0.42,1.01c-0.05,0.65,0.18,1.28,0.63,1.74
	c0.46,0.46,1.1,0.69,1.73,0.63C5.27,13.05,5.31,13.05,5.34,13.05L5.34,13.05z M6.05,5.5c-0.35,0-0.62,0.28-0.62,0.62
	c0,0.35,0.28,0.62,0.62,0.62c0.34,0,0.62-0.28,0.62-0.62C6.67,5.78,6.39,5.5,6.05,5.5z M9.8,9.25c-0.35,0-0.62,0.28-0.62,0.62
	S9.45,10.5,9.8,10.5s0.62-0.28,0.62-0.62S10.14,9.25,9.8,9.25z M7.19,10.22l2.5-3.75C9.89,6.19,9.81,5.8,9.52,5.61
	C9.23,5.41,8.84,5.49,8.65,5.78l-2.5,3.75C5.96,9.82,6.04,10.2,6.33,10.4c0.11,0.07,0.23,0.1,0.35,0.1
	C6.87,10.5,7.07,10.4,7.19,10.22z"/>
</svg>
