<?xml version="1.0" encoding="utf-8"?>
<!-- Generator: Adobe Illustrator 25.4.1, SVG Export Plug-In . SVG Version: 6.00 Build 0)  -->
<svg version="1.1" id="Layer_1" xmlns="http://www.w3.org/2000/svg" xmlns:xlink="http://www.w3.org/1999/xlink" x="0px" y="0px"
	 viewBox="0 0 15.85 16" style="enable-background:new 0 0 15.85 16;" xml:space="preserve">
<style type="text/css">
	.st0{fill:#FFFFFF;}
</style>
<g>
	<g>
		<path class="st0" d="M2.65,14.65c0-0.85,0-1.67,0-2.51c-0.19,0-0.38,0.01-0.57,0c-0.92-0.05-1.64-0.78-1.65-1.7
			c-0.01-1.9-0.01-3.8,0-5.7c0.01-0.97,0.79-1.7,1.78-1.7c2.54,0,5.07,0,7.61,0c0.14,0,0.21-0.04,0.27-0.16
			c0.55-1.06,1.78-1.68,2.93-1.48c1.26,0.22,2.2,1.17,2.37,2.39c0.21,1.49-0.75,2.85-2.23,3.18c-0.11,0.02-0.14,0.07-0.14,0.17
			c0,1.08,0.01,2.16,0,3.23c0,0.89-0.59,1.59-1.44,1.74c-0.14,0.03-0.29,0.03-0.44,0.03c-1.53,0-3.06,0-4.59,0
			c-0.1,0-0.21,0.03-0.29,0.09c-1.15,0.76-2.29,1.53-3.44,2.3C2.78,14.56,2.73,14.6,2.65,14.65z M9.78,3.9c-0.08,0-0.14,0-0.2,0
			c-1.12,0-2.25,0-3.37,0c-1.33,0-2.67,0-4,0c-0.5,0-0.89,0.36-0.89,0.85c0,1.89,0,3.77,0,5.66c0,0.46,0.36,0.83,0.82,0.84
			c0.41,0.01,0.81,0.01,1.22,0.01c0.06,0,0.11,0,0.19,0c0,0.59,0,1.15,0,1.74c0.07-0.04,0.11-0.07,0.15-0.1
			c0.77-0.51,1.53-1.02,2.29-1.54c0.11-0.07,0.22-0.11,0.35-0.1c0.49,0.01,0.98,0,1.47,0c1.14,0,2.27,0,3.41,0
			c0.6,0,0.95-0.35,0.95-0.95c0-1.06,0-2.11,0-3.17c0-0.11-0.02-0.16-0.14-0.18c-0.99-0.23-1.68-0.82-2.06-1.76
			C9.78,4.79,9.74,4.36,9.78,3.9z M12.59,2.24c-1.07,0-1.95,0.87-1.95,1.95c0,1.08,0.88,1.96,1.95,1.96c1.07,0,1.95-0.88,1.95-1.95
			C14.55,3.12,13.67,2.24,12.59,2.24z"/>
		<path class="st0" d="M4.15,6.98c0-0.28,0-0.56,0-0.85c1.8,0,3.59,0,5.4,0c0,0.28,0,0.56,0,0.85C7.75,6.98,5.95,6.98,4.15,6.98z"/>
		<path class="st0" d="M4.15,9.11c0-0.28,0-0.56,0-0.85c1.8,0,3.59,0,5.4,0c0,0.28,0,0.56,0,0.85C7.75,9.11,5.95,9.11,4.15,9.11z"/>
		<path class="st0" d="M12.16,3.16c0.29,0,0.57,0,0.86,0c0,0.68,0,1.36,0,2.05c-0.28,0-0.56,0-0.86,0
			C12.16,4.53,12.16,3.86,12.16,3.16z"/>
	</g>
</g>
</svg>
