<?xml version="1.0" encoding="utf-8"?>
<!-- Generator: Adobe Illustrator 25.4.1, SVG Export Plug-In . SVG Version: 6.00 Build 0)  -->
<svg version="1.1" id="Layer_1" xmlns="http://www.w3.org/2000/svg" xmlns:xlink="http://www.w3.org/1999/xlink" x="0px" y="0px"
	 viewBox="0 0 15.85 16" style="enable-background:new 0 0 15.85 16;" xml:space="preserve">
<style type="text/css">
	.st0{fill:#FFFFFF;}
</style>
<g>
	<g>
		<g>
			<path class="st0" d="M10.44,10.12c-0.36,0-0.64-0.25-0.64-0.56C9.8,9.25,10.09,9,10.44,9s0.64,0.25,0.64,0.56
				c0,0.16,0.13,0.29,0.29,0.29s0.29-0.13,0.29-0.29c0-0.54-0.4-0.99-0.94-1.11V8.3c0-0.16-0.13-0.29-0.29-0.29
				s-0.29,0.13-0.29,0.29v0.15C9.61,8.57,9.21,9.03,9.21,9.56c0,0.63,0.55,1.14,1.23,1.14c0.36,0,0.64,0.25,0.64,0.56
				c0,0.31-0.29,0.56-0.64,0.56S9.8,11.57,9.8,11.26c0-0.16-0.13-0.29-0.29-0.29c-0.16,0-0.29,0.13-0.29,0.29
				c0,0.54,0.4,0.99,0.94,1.11v0.13c0,0.16,0.13,0.29,0.29,0.29s0.29-0.13,0.29-0.29v-0.13c0.54-0.12,0.94-0.57,0.94-1.11
				C11.67,10.63,11.12,10.12,10.44,10.12z"/>
		</g>
	</g>
	<g>
		<g>
			<path class="st0" d="M11.77,5.63c-0.04-0.08-0.08-0.17-0.13-0.24h0.76c0.74,0,1.35-0.6,1.35-1.35s-0.6-1.35-1.35-1.35h-2.35
				c0.15-0.22,0.24-0.48,0.24-0.76c0-0.74-0.6-1.35-1.35-1.35H1.77c-0.74,0-1.35,0.6-1.35,1.35s0.6,1.35,1.35,1.35h2.35
				C3.97,3.5,3.88,3.76,3.88,4.04s0.09,0.54,0.24,0.76H3.35c-0.74,0-1.35,0.6-1.35,1.35c0,0.43,0.2,0.81,0.51,1.05
				C2.21,7.46,2.01,7.84,2.01,8.26c0,0.43,0.2,0.81,0.51,1.05c-0.31,0.25-0.51,0.63-0.51,1.05s0.2,0.81,0.51,1.05
				c-0.31,0.25-0.51,0.63-0.51,1.05c0,0.74,0.6,1.35,1.35,1.35h3.45c0.91,0.97,2.2,1.58,3.64,1.58c2.75,0,4.98-2.23,4.98-4.98
				C15.42,8.15,13.88,6.22,11.77,5.63z M12.41,3.28c0.42,0,0.76,0.34,0.76,0.76s-0.34,0.76-0.76,0.76h-1.87h-5.3
				c-0.42,0-0.76-0.34-0.76-0.76s0.34-0.76,0.76-0.76H12.41z M1.77,2.7c-0.42,0-0.76-0.34-0.76-0.76s0.34-0.76,0.76-0.76h7.18
				c0.42,0,0.76,0.34,0.76,0.76S9.37,2.7,8.95,2.7H1.77z M3.35,5.39h7.18c0.12,0,0.23,0.03,0.33,0.08
				c-0.14-0.01-0.28-0.02-0.42-0.02c-1.38,0-2.62,0.56-3.52,1.46H3.35c-0.42,0-0.76-0.34-0.76-0.76C2.59,5.73,2.93,5.39,3.35,5.39z
				 M3.35,7.5h3.06C6.09,7.96,5.83,8.47,5.67,9.03H3.35c-0.42,0-0.76-0.34-0.76-0.76C2.59,7.84,2.93,7.5,3.35,7.5z M3.35,9.61h2.18
				c-0.04,0.27-0.07,0.54-0.07,0.82c0,0.24,0.02,0.47,0.05,0.7H3.35c-0.42,0-0.76-0.34-0.76-0.76S2.93,9.61,3.35,9.61z M3.35,13.24
				c-0.42,0-0.76-0.34-0.76-0.76s0.34-0.76,0.76-0.76h2.28c0.15,0.55,0.39,1.06,0.7,1.52H3.35z M10.44,14.83
				c-2.42,0-4.39-1.97-4.39-4.39s1.97-4.39,4.39-4.39s4.39,1.97,4.39,4.39S12.87,14.83,10.44,14.83z"/>
		</g>
	</g>
</g>
</svg>
