<?xml version="1.0" encoding="utf-8"?>
<!-- Generator: Adobe Illustrator 25.4.1, SVG Export Plug-In . SVG Version: 6.00 Build 0)  -->
<svg version="1.1" id="Layer_1" xmlns="http://www.w3.org/2000/svg" xmlns:xlink="http://www.w3.org/1999/xlink" x="0px" y="0px"
	 viewBox="0 0 15.85 16" style="enable-background:new 0 0 15.85 16;" xml:space="preserve">
<style type="text/css">
	.st0{fill:#FF3E3A;}
	.st1{fill:#CA3245;}
	.st2{fill:#373E9D;}
	.st3{fill:#340D66;}
	.st4{fill:#FFE5B3;}
	.st5{fill:#FFCE6A;}
	.st6{fill:#FF9827;}
	.st7{fill:#FFB620;}
</style>
<g>
	<path class="st0" d="M13.56,2.36L11.69,0.5L9.52,2.68l1.55,4.04L13.56,2.36z"/>
	<path class="st1" d="M13.56,2.36l-3.42,3.42l3.11,0.62l2.18-2.18L13.56,2.36z"/>
	<path class="st2" d="M1.43,12.41l-1,3.09l3.29-2.05L1.43,12.41z"/>
	<path class="st3" d="M0.42,15.5l3.09-1l-0.42-1.67L0.42,15.5z"/>
	<path class="st4" d="M5.94,11.22L2.21,9.98l-0.79,2.43l1.04,1.04L5.94,11.22z"/>
	<path class="st5" d="M2.47,13.45l1.04,1.04l2.43-0.79L5.32,10.6L2.47,13.45z"/>
	<path class="st6" d="M4.08,11.85l1.86,1.86l7.31-7.31l-1.86-1.86L6.52,6.92L4.08,11.85z"/>
	<path class="st7" d="M2.21,9.98l7.3-7.3l1.86,1.86l-7.3,7.3L2.21,9.98z"/>
</g>
</svg>
