<?xml version="1.0" encoding="utf-8"?>
<!-- Generator: Adobe Illustrator 25.4.1, SVG Export Plug-In . SVG Version: 6.00 Build 0)  -->
<svg version="1.1" id="Layer_1" xmlns="http://www.w3.org/2000/svg" xmlns:xlink="http://www.w3.org/1999/xlink" x="0px" y="0px"
	 viewBox="0 0 15.85 16" style="enable-background:new 0 0 15.85 16;" xml:space="preserve">
<style type="text/css">
	.st0{fill:#FFFFFF;}
</style>
<path class="st0" d="M14.61,9.04l-1.19-4.27c-0.86-3.1-4.07-4.91-7.17-4.05C4.17,1.29,2.59,2.96,2.12,5.06L1.2,9.19
	c-0.37,1.68,0.69,3.35,2.37,3.73C3.8,12.97,4.02,13,4.25,13h0.7c0.34,1.69,1.99,2.78,3.68,2.44c1.23-0.25,2.19-1.21,2.44-2.44h0.52
	c1.73,0,3.12-1.4,3.12-3.12C14.72,9.59,14.68,9.31,14.61,9.04L14.61,9.04z M8.01,14.25c-0.79,0-1.5-0.5-1.76-1.25h3.52
	C9.51,13.74,8.8,14.24,8.01,14.25z M13.09,11.01c-0.35,0.47-0.91,0.74-1.49,0.74H4.25c-1.04,0-1.87-0.84-1.87-1.87
	c0-0.14,0.02-0.27,0.04-0.41l0.92-4.13C3.89,2.87,6.33,1.31,8.8,1.86c1.65,0.37,2.96,1.61,3.41,3.24l1.19,4.27
	C13.56,9.94,13.44,10.54,13.09,11.01z"/>
</svg>
